<svg xmlns="http://www.w3.org/2000/svg" width="512" height="512" fill="none" viewBox="0 0 512 512"><circle cx="256" cy="256" r="256" fill="#F7835A"/><circle cx="214.5" cy="105.5" r="22.5" fill="#fff"/><circle cx="312.5" cy="414.5" r="22.5" fill="#fff"/><circle cx="106.5" cy="314.5" r="22.5" fill="#fff"/><rect width="135.117" height="45" x="70.707" y="217.686" fill="#fff" rx="22.5" transform="rotate(-44.8726 70.7072 217.686)"/><rect width="90.503" height="45" x="352.194" y="345.123" fill="#fff" rx="22.5" transform="rotate(-44.8726 352.194 345.123)"/><rect width="341.86" height="45" x="176" y="419.329" fill="#fff" rx="22.5" transform="rotate(-44.8726 176 419.329)"/><rect width="135.117" height="45" x="111" y="380.329" fill="#fff" rx="22.5" transform="rotate(-44.8726 111 380.329)"/><rect width="223.939" height="45" x="225.054" y="267.996" fill="#fff" rx="22.5" transform="rotate(-44.8726 225.054 267.996)"/><rect width="270.434" height="45" x="125" y="264.329" fill="#fff" rx="22.5" transform="rotate(-44.8726 125 264.329)"/></svg>